User Type,Username,Date,Text
,vevdare,2011-05-07T10:41Z,thanks man +1
,Blake7seven,2011-05-12T23:37Z,Sound is not working.
[T],CODYBOSS1969,2011-05-24T22:46Z,"Missleading Info torrent:General
Complete name                    : Dances with Wolves 1990 20th Anniversary Extended Cut 720p BRRip X264-ExtraTorrentRG.mp4
Format                           : MPEG-4
Format profile                   : Base Media
Codec ID                         : isom
File size                        : 2.00 GiB
Duration                         : 3h 53mn
Overall bit rate                 : 1 224 Kbps
Encoded date                     : UTC 2011-05-06 00:26:31
Tagged date                      : UTC 2011-05-06 00:26:31

Video
ID                               : 1
Format                           : AVC
Format/Info                      : Advanced Video Codec
Format profile                   : High@L3.1
Format settings, CABAC           : Yes
Format settings, ReFrames        : 4 frames
Codec ID                         : avc1
Codec ID/Info                    : Advanced Video Coding
Duration                         : 3h 53mn
Bit rate mode                    : Variable
Bit rate                         : 774 Kbps
Maximum bit rate                 : 8 107 Kbps
Width                            : 1 280 pixels
Height                           : 542 pixels
Display aspect ratio             : 2.35:1
Frame rate mode                  : Constant
Frame rate                       : 23.976 fps
Color space                      : YUV
Chroma subsampling               : 4:2:0
Bit depth                        : 8 bits
Scan type                        : Progressive
Bits/(Pixel*Frame)               : 0.047
Stream size                      : 1.26 GiB (63%)
Title                            : d
Writing library                  : x264 core 114 r1924 08d04a4
Encoding settings                : cabac=1 / ref=3 / deblock=1:0:0 / analyse=0x3:0x113 / me=hex / subme=7 / psy=1 / psy_rd=1.00:0.00 / mixed_ref=1 / me_range=16 / chroma_me=1 / trellis=1 / 8x8dct=1 / cqm=0 / deadzone=21,11 / fast_pskip=1 / chroma_qp_offset=-2 / threads=3 / sliced_threads=0 / nr=0 / decimate=1 / interlaced=0 / constrained_intra=0 / bframes=3 / b_pyramid=2 / b_adapt=1 / b_bias=0 / direct=1 / weightb=1 / open_gop=0 / weightp=2 / keyint=250 / keyint_min=23 / scenecut=40 / intra_refresh=0 / rc_lookahead=40 / rc=2pass / mbtree=1 / bitrate=774 / ratetol=1.0 / qcomp=0.60 / qpmin=0 / qpmax=69 / qpstep=4 / cplxblur=20.0 / qblur=0.5 / ip_ratio=1.40 / aq=1:1.00
Encoded date                     : UTC 2011-05-06 00:26:31
Tagged date                      : UTC 2011-05-06 00:29:40

Audio
ID                               : 2
Format                           : AC-3
Format/Info                      : Audio Coding 3
Mode extension                   : CM (complete main)
Codec ID                         : ac-3
Duration                         : 3h 53mn
Bit rate mode                    : Constant
Bit rate                         : 448 Kbps
Channel(s)                       : 6 channels
Channel positions                : Front: L C R, Side: L R, LFE
Sampling rate                    : 48.0 KHz
Bit depth                        : 16 bits
Compression mode                 : Lossy
Stream size                      : 749 MiB (37%)
Title                            : d
Encoded date                     : UTC 2011-05-06 00:28:33
Tagged date                      : UTC 2011-05-06 00:29:40


And the minimum bitrate of about 800 kbps shows up every quick moving scene, sometimes in dark scenes.....NEEDS A RERIP...AND A PROPER ONE ! THE MOVIE HAS ABOUT 4 HOURS !!!

Thanks anyway to the ripper [Encoder: NiKoNET] for his effort !!!


"
[T],CODYBOSS1969,2011-05-24T22:50Z,The previous post of mine is with the correct MediaInfo !!! The uploader posted a missleading Info. Sorry but this is the truth SaM ! I'll wait for the ReRip !!
,Maxjmus,2011-05-28T10:42Z,where can I find Finnish subs for this? There isn't even one to director's cut
,Maxjmus,2011-05-28T10:48Z,"where can I find finnish subs to this? there is only subs for theatre version, not to director's"
,tricepsman,2011-06-29T18:17Z,"WOWWWW
4 hours watching this movie hahah

nice up
V 8
A 9"
,kotuwa,2011-09-14T21:02Z,"Great Movie! 
Good AV Quality and Good Seeds :)"
,kotuwa,2011-09-14T21:07Z,"English Subtitles (Complete) 
http://subscene.com/english/dances-with-wolves-special-extended-edition/subtitle-476990.aspx"
